HIERARCHY
ROOT joint_Root
{
	OFFSET 0.0 0.0 0.0
	CHANNELS 6 Xposition Yposition Zposition Zrotation Xrotation Yrotation 
	JOINT Hips
	{
		OFFSET -17.1583 93.1646 452.98
		CHANNELS 6 Xposition Yposition Zposition Zrotation Xrotation Yrotation 
		JOINT Spine
		{
			OFFSET 15.7357 0.0 0.0
			CHANNELS 6 Xposition Yposition Zposition Zrotation Xrotation Yrotation 
			JOINT Chest
			{
				OFFSET 8.98455 -0.406207 0.0
				CHANNELS 6 Xposition Yposition Zposition Zrotation Xrotation Yrotation 
				JOINT Neck
				{
					OFFSET 16.3773 0.0 0.0
					CHANNELS 6 Xposition Yposition Zposition Zrotation Xrotation Yrotation 
					JOINT Head
					{
						OFFSET 6.45672 0.0 0.0
						CHANNELS 6 Xposition Yposition Zposition Zrotation Xrotation Yrotation 
						End Site
						{
							OFFSET 0.0 0.0 0.0
						}
					}
				}
				JOINT Shoulder_L
				{
					OFFSET 12.9942 -0.242716 4.98039
					CHANNELS 6 Xposition Yposition Zposition Zrotation Xrotation Yrotation 
					JOINT UpperArm_L
					{
						OFFSET 5.34809 0.0 0.0
						CHANNELS 6 Xposition Yposition Zposition Zrotation Xrotation Yrotation 
						JOINT LowerArm_L
						{
							OFFSET 24.3286 1.87007e-05 0.0
							CHANNELS 6 Xposition Yposition Zposition Zrotation Xrotation Yrotation 
							JOINT Hand_L
							{
								OFFSET 22.2916 0.0 0.0
								CHANNELS 6 Xposition Yposition Zposition Zrotation Xrotation Yrotation 
								End Site
								{
									OFFSET 0.0 0.0 0.0
								}
							}
						}
					}
				}
				JOINT Shoulder_R
				{
					OFFSET 12.9945 -0.242716 -4.98039
					CHANNELS 6 Xposition Yposition Zposition Zrotation Xrotation Yrotation 
					JOINT UpperArm_R
					{
						OFFSET -5.34813 0.0 0.0
						CHANNELS 6 Xposition Yposition Zposition Zrotation Xrotation Yrotation 
						JOINT LowerArm_R
						{
							OFFSET -24.3289 0.000322201 0.0
							CHANNELS 6 Xposition Yposition Zposition Zrotation Xrotation Yrotation 
							JOINT Hand_R
							{
								OFFSET -22.2915 -0.000108084 0.0
								CHANNELS 6 Xposition Yposition Zposition Zrotation Xrotation Yrotation 
								End Site
								{
									OFFSET 0.0 0.0 0.0
								}
							}
						}
					}
				}
			}
		}
		JOINT UpperLeg_L
		{
			OFFSET -2.19248 -6.46944 0.0
			CHANNELS 6 Xposition Yposition Zposition Zrotation Xrotation Yrotation 
			JOINT LowerLeg_L
			{
				OFFSET 39.0811 0.0 -1.23785e-05
				CHANNELS 6 Xposition Yposition Zposition Zrotation Xrotation Yrotation 
				JOINT Foot_L
				{
					OFFSET 40.9854 0.0 -1.26872e-05
					CHANNELS 6 Xposition Yposition Zposition Zrotation Xrotation Yrotation 
					JOINT Toes_L
					{
						OFFSET 11.7543 0.0 0.0
						CHANNELS 6 Xposition Yposition Zposition Zrotation Xrotation Yrotation 
						End Site
						{
							OFFSET 0.0 0.0 0.0
						}
					}
				}
			}
		}
		JOINT UpperLeg_R
		{
			OFFSET -2.19251 6.46944 0.0
			CHANNELS 6 Xposition Yposition Zposition Zrotation Xrotation Yrotation 
			JOINT LowerLeg_R
			{
				OFFSET -39.0811 -0.00228153 -0.0401928
				CHANNELS 6 Xposition Yposition Zposition Zrotation Xrotation Yrotation 
				JOINT Foot_R
				{
					OFFSET -40.9854 0.0 0.0
					CHANNELS 6 Xposition Yposition Zposition Zrotation Xrotation Yrotation 
					JOINT Toes_R
					{
						OFFSET -11.7543 0.0 0.0
						CHANNELS 6 Xposition Yposition Zposition Zrotation Xrotation Yrotation 
						End Site
						{
							OFFSET 0.0 0.0 0.0
						}
					}
				}
			}
		}
	}
}
MOTION
Frames:	7
Frame Time:	0.0333333
0.000000 0.000000 0.000000 0.000000 0.000000 -0.000000 3.062710 95.357800 -86.972000 88.636200 0.255308 -11.973800 15.735700 0.000005 -0.000001 40.326700 84.986100 -37.096200 8.984550 -0.406207 -0.000000 -1.046050 -7.891560 6.394360 16.377300 -0.000001 -0.000001 -3.440880 6.095500 -0.732056 6.456720 -0.000001 -0.000000 4.046580 12.192500 -9.610210 12.994200 -0.242716 4.980390 -91.994700 7.124440 -74.314500 5.348090 -0.000007 -0.000001 -73.394500 -5.344270 -1.449970 24.328600 0.000019 0.000005 56.692700 8.546050 -84.422800 22.291600 -0.000001 0.000005 36.942800 3.959900 24.793400 12.994500 -0.242716 -4.980390 90.149500 -0.487682 -72.950300 -5.348130 -0.000001 -0.000004 -56.598900 -18.966300 28.397200 -24.328900 0.000322 -0.000009 2.172770 10.365400 -11.913200 -22.291500 -0.000108 -0.000004 48.315900 5.254690 1.308310 -2.192480 -6.469440 -0.000000 179.831000 -3.247970 2.516600 39.081100 -0.000007 -0.000012 0.070337 -0.097978 35.673600 40.985400 -0.000006 -0.000013 -4.925840 1.319040 -32.835900 11.754300 -0.000000 0.000003 0.002380 0.066376 -13.884600 -2.192510 6.469440 -0.000001 178.180000 -12.068100 148.704000 -39.081100 -0.002282 -0.040193 0.008247 -0.021620 12.802500 -40.985400 0.000008 0.000006 -9.078590 -11.822000 -73.949300 -11.754300 -0.000006 -0.000006 -0.001925 0.195443 -8.644110
0.000000 0.000000 0.000000 0.000000 0.000000 -0.000000 2.711470 93.046900 -77.926500 88.333200 -0.522887 -10.106500 15.735700 0.000005 -0.000001 47.881500 84.991100 -44.693200 8.984550 -0.406207 -0.000000 -0.129958 -6.936600 6.371170 16.377300 -0.000001 -0.000001 -3.176030 6.046580 -0.787352 6.456720 -0.000001 -0.000000 3.982410 11.821500 -9.840870 12.994200 -0.242716 4.980390 -92.116800 7.432950 -74.054800 5.348090 -0.000007 -0.000001 -73.949600 -6.521520 0.686836 24.328600 0.000019 0.000005 55.649400 14.335500 -80.395400 22.291600 -0.000001 0.000005 38.392300 4.001130 24.210200 12.994500 -0.242716 -4.980390 90.029900 -0.095459 -72.625100 -5.348130 -0.000001 -0.000004 -58.392800 -17.027500 24.557000 -24.328900 0.000322 -0.000009 1.988250 8.416570 -13.350900 -22.291500 -0.000108 -0.000004 47.971700 5.273590 0.801231 -2.192480 -6.469440 -0.000000 -179.608000 -4.261000 0.146929 39.081100 -0.000007 -0.000012 0.145023 -0.121827 49.967100 40.985400 -0.000006 -0.000013 -6.038670 0.149544 -32.432000 11.754300 -0.000000 0.000003 0.002373 0.065864 -13.905400 -2.192510 6.469440 -0.000001 -178.174000 -7.979870 150.333000 -39.081100 -0.002282 -0.040193 0.006830 -0.011030 17.626000 -40.985400 0.000008 0.000006 -11.492400 -9.729490 -77.601000 -11.754300 -0.000006 -0.000006 -0.001057 0.183881 -9.114140
0.000000 0.000000 0.000000 0.000000 0.000000 -0.000000 2.067800 90.034500 -69.850400 86.082600 -1.930650 -10.968900 15.735700 0.000005 -0.000001 55.869000 85.767300 -52.098700 8.984550 -0.406207 -0.000000 -0.581358 -5.023120 7.515280 16.377300 -0.000001 -0.000001 -3.309700 5.967800 -0.475867 6.456720 -0.000001 -0.000000 3.788080 11.458000 -10.480500 12.994200 -0.242716 4.980390 -92.570200 8.709140 -73.487300 5.348090 -0.000007 -0.000001 -71.548100 -10.379100 3.112430 24.328600 0.000019 0.000005 53.650100 20.231100 -75.721300 22.291600 -0.000001 0.000005 37.929400 4.022910 23.899800 12.994500 -0.242716 -4.980390 89.768500 0.746502 -72.769500 -5.348130 -0.000001 -0.000004 -60.189900 -14.811700 19.873900 -24.328900 0.000322 -0.000009 2.070200 7.010670 -16.505500 -22.291500 -0.000108 -0.000004 48.450500 5.296620 0.166949 -2.192480 -6.469440 -0.000000 -176.348000 -7.959290 -7.813900 39.081100 -0.000007 -0.000012 0.338669 -0.145145 66.800700 40.985400 -0.000006 -0.000013 -5.932720 -1.919550 -33.775700 11.754300 -0.000000 0.000003 0.002443 0.072583 -13.633000 -2.192510 6.469440 -0.000001 -172.211000 -4.360820 144.687000 -39.081100 -0.002282 -0.040193 0.126704 -0.204948 31.053200 -40.985400 0.000008 0.000006 -1.419820 -9.050570 -67.575000 -11.754300 -0.000006 -0.000006 -0.004033 0.219456 -7.666890
0.000000 0.000000 0.000000 0.000000 0.000000 -0.000000 1.503190 86.550200 -61.680400 84.782000 -2.680670 -9.391920 15.735700 0.000005 -0.000001 70.470700 85.481800 -66.548400 8.984550 -0.406207 -0.000000 0.875975 -3.255140 7.865220 16.377300 -0.000001 -0.000001 -3.945720 5.742730 -0.177177 6.456720 -0.000001 -0.000000 2.882630 10.739200 -10.912500 12.994200 -0.242716 4.980390 -93.051700 10.207200 -73.256300 5.348090 -0.000007 -0.000001 -66.563400 -16.860800 6.962610 24.328600 0.000019 0.000005 47.911300 22.201300 -71.155200 22.291600 -0.000001 0.000005 39.577400 3.966760 24.695800 12.994500 -0.242716 -4.980390 89.262000 2.399390 -72.898700 -5.348130 -0.000001 -0.000004 -61.448500 -12.150400 13.828800 -24.328900 0.000322 -0.000009 2.303440 6.095260 -20.759900 -22.291500 -0.000108 -0.000004 49.492300 5.306370 -0.106356 -2.192480 -6.469440 -0.000000 -173.724000 -9.979920 -14.680500 39.081100 -0.000007 -0.000012 0.547142 -0.071816 82.521700 40.985400 -0.000006 -0.000013 -6.715050 -5.917670 -35.002900 11.754300 -0.000000 0.000003 0.002400 0.068074 -13.815800 -2.192510 6.469440 -0.000001 -169.981000 -3.594360 143.131000 -39.081100 -0.002282 -0.040193 -0.006011 0.008445 47.656500 -40.985400 0.000008 0.000006 -1.397620 -6.804970 -76.307700 -11.754300 -0.000006 -0.000006 -0.009679 0.268892 -5.649680
0.000000 0.000000 0.000000 0.000000 0.000000 -0.000000 1.015000 84.373000 -54.032000 83.058100 -4.443490 -8.429300 15.735700 0.000005 -0.000001 84.438800 84.588600 -80.225700 8.984550 -0.406207 -0.000000 3.065290 -1.220080 8.450250 16.377300 -0.000001 -0.000001 -5.422140 6.021090 0.021793 6.456720 -0.000001 -0.000000 0.855504 10.026500 -11.526000 12.994200 -0.242716 4.980390 -93.445600 10.697700 -72.029200 5.348090 -0.000007 -0.000001 -61.373400 -22.698500 11.456900 24.328600 0.000019 0.000005 43.879500 22.854100 -68.006900 22.291600 -0.000001 0.000005 41.401300 3.951720 24.908100 12.994500 -0.242716 -4.980390 88.884200 3.823110 -73.716100 -5.348130 -0.000001 -0.000004 -63.025600 -9.823260 5.372950 -24.328900 0.000322 -0.000009 2.353660 4.610820 -27.087300 -22.291500 -0.000108 -0.000004 49.525400 5.324970 -0.638763 -2.192480 -6.469440 -0.000000 -171.953000 -11.467300 -23.504900 39.081100 -0.000007 -0.000012 0.521927 0.039737 94.352600 40.985400 -0.000006 -0.000013 -4.556060 -3.942830 -37.829800 11.754300 -0.000000 0.000003 0.002413 0.069326 -13.765000 -2.192510 6.469440 -0.000001 -167.851000 -3.985700 146.624000 -39.081100 -0.002282 -0.040193 -0.008441 0.008207 54.879100 -40.985400 0.000008 0.000006 -1.348540 -5.552440 -84.273500 -11.754300 -0.000006 -0.000006 -0.006355 0.241690 -6.760620
0.000000 0.000000 0.000000 0.000000 0.000000 -0.000000 0.776339 84.125300 -46.455300 82.685500 -5.219900 -8.431400 15.735700 0.000005 -0.000001 94.563800 84.287800 -90.360200 8.984550 -0.406207 -0.000000 3.608570 0.755853 8.374250 16.377300 -0.000001 -0.000001 -6.103490 5.388730 0.464849 6.456720 -0.000001 -0.000000 0.282928 8.718090 -12.244100 12.994200 -0.242716 4.980390 -93.406600 10.164900 -71.361200 5.348090 -0.000007 -0.000001 -56.511700 -24.183900 16.702900 24.328600 0.000019 0.000005 42.751000 24.383600 -65.934600 22.291600 -0.000001 0.000005 41.895600 3.996210 24.280300 12.994500 -0.242716 -4.980390 88.938800 3.806810 -74.411100 -5.348130 -0.000001 -0.000004 -64.714300 -8.715100 0.191297 -24.328900 0.000322 -0.000009 4.466870 5.699250 -38.192500 -22.291500 -0.000108 -0.000004 48.546500 5.322900 -0.580284 -2.192480 -6.469440 -0.000000 -172.228000 -10.070300 -33.149400 39.081100 -0.000007 -0.000012 0.421338 0.069608 99.379400 40.985400 -0.000006 -0.000013 -5.074810 -2.001090 -42.177000 11.754300 -0.000000 0.000003 0.002440 0.072218 -13.647800 -2.192510 6.469440 -0.000001 -167.720000 -2.833700 153.051000 -39.081100 -0.002282 -0.040193 -0.001660 0.003539 54.111900 -40.985400 0.000008 0.000006 -1.661690 -3.422070 -88.424900 -11.754300 -0.000006 -0.000006 -0.003239 0.210950 -8.013210
0.000000 0.000000 0.000000 0.000000 0.000000 -0.000000 1.026830 85.817200 -38.736900 84.648400 -5.055940 -9.416820 15.735700 0.000005 -0.000001 103.848000 84.594900 -100.571000 8.984550 -0.406207 -0.000000 2.670850 2.439580 6.489700 16.377300 -0.000001 -0.000001 -6.745020 4.050920 1.270760 6.456720 -0.000001 -0.000000 0.497778 6.605420 -11.418400 12.994200 -0.242716 4.980390 -93.051200 9.157760 -71.483400 5.348090 -0.000007 -0.000001 -51.975200 -24.545700 21.262800 24.328600 0.000019 0.000005 42.281800 25.849700 -64.383400 22.291600 -0.000001 0.000005 41.590500 4.033360 23.751400 12.994500 -0.242716 -4.980390 88.997500 3.662950 -74.683000 -5.348130 -0.000001 -0.000004 -65.373500 -5.810360 -1.631270 -24.328900 0.000322 -0.000009 5.987060 4.829550 -51.247300 -22.291500 -0.000108 -0.000004 50.345400 5.302380 0.004886 -2.192480 -6.469440 -0.000000 -175.333000 -6.540940 -41.457700 39.081100 -0.000007 -0.000012 0.243969 0.027778 96.493200 40.985400 -0.000006 -0.000013 -5.534580 -3.336450 -48.699600 11.754300 -0.000000 0.000003 0.002407 0.068738 -13.788900 -2.192510 6.469440 -0.000001 -170.856000 -0.580700 160.927000 -39.081100 -0.002282 -0.040193 -0.004986 0.007708 46.922400 -40.985400 0.000008 0.000006 -2.509880 -0.179675 -87.579900 -11.754300 -0.000006 -0.000006 0.000135 0.165368 -9.866210
